<svg width="197" height="95" viewBox="0 0 197 95" fill="none" xmlns="http://www.w3.org/2000/svg">
<path d="M3.07617 56.2129C3.07617 54.3086 4.16667 53.3564 6.34766 53.3564C7.45443 53.3564 8.54492 53.6413 9.61914 54.2109C9.61914 56.278 10.0505 57.8649 10.9131 58.9717C11.7757 60.0622 13.2487 60.6074 15.332 60.6074C17.4316 60.6074 18.9697 60.2087 19.9463 59.4111C20.9229 58.6136 21.4111 57.3441 21.4111 55.6025C21.4111 53.7471 20.695 52.1602 19.2627 50.8418C18.0908 49.7513 16.7318 48.8073 15.1855 48.0098C13.6393 47.2122 12.3942 46.5612 11.4502 46.0566C10.5062 45.5358 9.60286 44.9661 8.74023 44.3477C7.89388 43.7292 7.13704 43.0618 6.46973 42.3457C5.03743 40.7995 4.32129 38.9521 4.32129 36.8037C4.32129 34.639 4.88281 32.8161 6.00586 31.335C8.20312 28.4378 11.7757 26.9893 16.7236 26.9893C20.5322 26.9893 23.4375 27.7786 25.4395 29.3574C27.2624 30.806 28.1738 32.4173 28.1738 34.1914C28.1738 35.0215 27.889 35.7051 27.3193 36.2422C26.766 36.7793 25.9033 37.0479 24.7314 37.0479C23.5596 37.0479 22.3551 36.7467 21.1182 36.1445C21.1182 36.0306 21.1182 35.9248 21.1182 35.8271C21.1182 34.0205 20.7113 32.5719 19.8975 31.4814C19.0999 30.391 17.8874 29.8457 16.2598 29.8457C14.6322 29.8457 13.3382 30.3014 12.3779 31.2129C11.4339 32.1243 10.9619 33.4671 10.9619 35.2412C10.9619 36.7712 11.7106 38.1139 13.208 39.2695C14.2497 40.0833 15.6169 40.9134 17.3096 41.7598C19.0023 42.6061 20.3369 43.2979 21.3135 43.835C22.3063 44.3558 23.2503 44.9499 24.1455 45.6172C25.0407 46.2682 25.8301 46.9844 26.5137 47.7656C28.0111 49.4583 28.7598 51.4115 28.7598 53.625C28.7598 55.8223 28.1657 57.6859 26.9775 59.2158C25.7894 60.7295 24.2025 61.8851 22.2168 62.6826C20.2311 63.4639 18.2292 63.8545 16.2109 63.8545C14.209 63.8545 12.5163 63.6917 11.1328 63.3662C9.74935 63.057 8.57747 62.6419 7.61719 62.1211C6.6569 61.584 5.82682 60.9818 5.12695 60.3145C3.75977 59.0124 3.07617 57.6452 3.07617 56.2129ZM45.9424 52.4531C46.4307 54.862 47.4723 56.807 49.0674 58.2881C50.6624 59.7692 52.526 60.5098 54.6582 60.5098C56.7904 60.5098 58.9388 59.5902 61.1035 57.751C61.9173 58.2881 62.4137 58.9229 62.5928 59.6553C61.0954 61.3968 58.8818 62.6419 55.9521 63.3906C54.764 63.6999 53.3887 63.8545 51.8262 63.8545C50.2799 63.8545 48.6768 63.5697 47.0166 63C45.3564 62.4466 43.8672 61.6328 42.5488 60.5586C41.2467 59.4844 40.2132 58.0765 39.4482 56.335C38.6833 54.5771 38.3008 52.6322 38.3008 50.5C38.3008 48.3678 38.6914 46.4391 39.4727 44.7139C40.2539 42.9723 41.2874 41.5482 42.5732 40.4414C45.2588 38.1139 48.335 36.9502 51.8018 36.9502C54.8454 36.9502 57.4821 37.7721 59.7119 39.416C60.7861 40.2298 61.6406 41.2878 62.2754 42.5898C62.9264 43.8757 63.252 45.3324 63.252 46.96C63.252 49.7432 62.3324 51.208 60.4932 51.3545L45.9424 52.4531ZM56.6846 46.2275C56.6846 44.2907 56.1475 42.777 55.0732 41.6865C53.999 40.596 52.5911 40.0508 50.8496 40.0508C49.1081 40.0508 47.7897 40.8727 46.8945 42.5166C45.9993 44.1442 45.5518 46.4066 45.5518 49.3037C49.6045 48.8643 53.2666 48.4004 56.5381 47.9121C56.6357 47.3262 56.6846 46.7646 56.6846 46.2275ZM89.3945 46.6182C89.3945 43.835 88.7598 42.4434 87.4902 42.4434C86.5625 42.4434 85.6755 42.7119 84.8291 43.249C83.9827 43.7699 83.0713 44.5023 82.0947 45.4463C82.0947 47.0739 82.0459 52.9414 81.9482 63.0488C80.1416 63.3581 78.6605 63.5127 77.5049 63.5127C76.3656 63.5127 75.3809 63.3581 74.5508 63.0488C74.7461 60.347 74.8438 55.7165 74.8438 49.1572V43.4443C74.8438 42.2074 74.4124 41.4749 73.5498 41.2471C72.9639 41.068 72.1745 40.9378 71.1816 40.8564C71.0677 40.3682 71.0107 40.002 71.0107 39.7578C71.0107 39.4974 71.0189 39.2939 71.0352 39.1475C73.3789 37.8291 76.276 37.1699 79.7266 37.1699C80.2962 37.1699 80.7194 37.1781 80.9961 37.1943C81.4681 38.0081 81.7448 38.8545 81.8262 39.7334C81.9238 40.6123 81.9971 41.4505 82.0459 42.248C84.2269 39.5951 86.0661 37.9837 87.5635 37.4141C88.2796 37.1374 89.0365 36.999 89.834 36.999C91.4616 36.999 92.7637 37.4548 93.7402 38.3662C94.7331 39.2614 95.2295 40.5798 95.2295 42.3213C95.2295 43.6559 94.7412 44.7708 93.7646 45.666C92.8044 46.5449 91.6406 46.9844 90.2734 46.9844C89.9805 46.9844 89.6875 46.96 89.3945 46.9111V46.6182ZM124.717 36.4619C127.777 36.4619 129.307 37.9268 129.307 40.8564C129.307 43.1188 128.118 46.2194 125.742 50.1582C122.682 55.2201 120.339 59.6878 118.711 63.5615C118.125 63.7894 117.474 63.9033 116.758 63.9033C116.042 63.9033 115.342 63.765 114.658 63.4883C113.975 63.2116 113.503 62.9023 113.242 62.5605C112.998 62.2188 112.445 60.9818 111.582 58.8496C110.736 56.7174 109.84 54.4876 108.896 52.1602C107.969 49.8327 106.927 47.5866 105.771 45.4219C104.616 43.2572 103.647 41.9307 102.866 41.4424C102.606 41.2796 101.825 41.1494 100.522 41.0518C100.506 40.9215 100.482 40.7832 100.449 40.6367C100.417 40.474 100.392 40.3519 100.376 40.2705C100.327 39.9287 100.327 39.6195 100.376 39.3428C102.736 38.0244 105.381 37.3652 108.311 37.3652C108.848 37.3652 109.246 37.3734 109.507 37.3896C110.174 38.0895 111.175 40.0671 112.51 43.3223C113.844 46.5612 115.496 51.3382 117.466 57.6533C120.965 47.4808 122.796 41.5807 122.959 39.9531C123.008 39.5462 123.032 39.0905 123.032 38.5859C123.032 38.0651 122.878 37.5687 122.568 37.0967C122.568 36.9502 122.804 36.8118 123.276 36.6816C123.748 36.5352 124.229 36.4619 124.717 36.4619ZM140.825 25.5977C141.785 24.7839 142.827 24.377 143.95 24.377C145.073 24.377 146.001 24.7269 146.733 25.4268C147.466 26.1104 147.832 27.0788 147.832 28.332C147.832 29.5853 147.36 30.6432 146.416 31.5059C145.472 32.3522 144.39 32.7754 143.169 32.7754C141.965 32.7754 141.012 32.401 140.312 31.6523C139.629 30.9036 139.287 29.9434 139.287 28.7715C139.287 27.5996 139.8 26.5417 140.825 25.5977ZM140.166 43.4443C140.166 42.2074 139.735 41.4749 138.872 41.2471C138.319 41.068 137.537 40.9378 136.528 40.8564C136.414 40.3682 136.357 40.002 136.357 39.7578C136.357 39.4974 136.366 39.2939 136.382 39.1475C138.726 37.8291 141.663 37.1699 145.195 37.1699C145.765 37.1699 146.188 37.1781 146.465 37.1943C146.921 37.9105 147.238 39.3102 147.417 41.3936C147.547 42.3376 147.612 43.7617 147.612 45.666C147.612 47.5703 147.547 53.3646 147.417 63.0488C145.61 63.3581 144.105 63.5127 142.9 63.5127C141.712 63.5127 140.703 63.3581 139.873 63.0488C140.166 59.1263 140.312 55.6188 140.312 52.5264C140.312 49.4176 140.264 46.3903 140.166 43.4443ZM172.485 58.0928C173.071 58.6299 173.405 59.1833 173.486 59.7529C171.338 62.4873 168.856 63.8545 166.04 63.8545C164.201 63.8545 162.899 63.1221 162.134 61.6572C161.483 60.3714 161.084 58.166 160.938 55.041C160.807 50.1582 160.742 45.609 160.742 41.3936C159.082 41.3285 158.065 41.2471 157.69 41.1494C157.609 41.0192 157.568 40.5391 157.568 39.709C157.568 38.8789 157.609 38.4232 157.69 38.3418L160.791 38.0488C160.791 37.707 160.84 36.0713 160.938 33.1416C161.751 32.3115 162.939 31.6768 164.502 31.2373C166.081 30.7816 167.48 30.5537 168.701 30.5537C168.473 32.6208 168.286 35.1191 168.14 38.0488C168.677 38.0651 170.296 38.1628 172.998 38.3418C173.079 38.6185 173.12 39.1475 173.12 39.9287C173.12 40.71 173.079 41.182 172.998 41.3447C171.501 41.54 169.832 41.6621 167.993 41.7109C167.928 43.6478 167.896 46.0973 167.896 49.0596C167.896 52.0055 167.961 54.7887 168.091 57.4092C168.14 58.4183 168.644 58.9229 169.604 58.9229C170.581 58.9229 171.541 58.6462 172.485 58.0928Z" fill="black"/>
<path d="M66.8495 5.00914C107.787 5.00914 193.962 -11.4792 193.962 50.0131C193.962 112.711 93.4192 85.8009 55 85.8009" stroke="black" stroke-width="6" stroke-linecap="round"/>
</svg>
